<svg width="28" height="29" viewBox="0 0 28 29" fill="none" xmlns="http://www.w3.org/2000/svg">
<path d="M22.75 24.8833L16.2166 18.35C15.6333 18.8166 14.9625 19.1861 14.2041 19.4583C13.4458 19.7305 12.6388 19.8666 11.7833 19.8666C9.66384 19.8666 7.87028 19.1324 6.40262 17.664C4.93495 16.1955 4.20073 14.402 4.19995 12.2833C4.19995 10.1638 4.93417 8.37028 6.40262 6.90262C7.87106 5.43495 9.66462 4.70073 11.7833 4.69995C13.9027 4.69995 15.6963 5.43417 17.164 6.90262C18.6316 8.37106 19.3658 10.1646 19.3666 12.2833C19.3666 13.1388 19.2305 13.9458 18.9583 14.7041C18.6861 15.4625 18.3166 16.1333 17.85 16.7166L24.4125 23.2791C24.6263 23.493 24.7333 23.7555 24.7333 24.0666C24.7333 24.3777 24.6166 24.65 24.3833 24.8833C24.1694 25.0972 23.8972 25.2041 23.5666 25.2041C23.2361 25.2041 22.9638 25.0972 22.75 24.8833ZM11.7833 17.5333C13.2416 17.5333 14.4814 17.0227 15.5026 16.0015C16.5238 14.9802 17.0341 13.7408 17.0333 12.2833C17.0333 10.825 16.5227 9.58517 15.5015 8.56395C14.4802 7.54273 13.2408 7.03251 11.7833 7.03328C10.325 7.03328 9.08517 7.5439 8.06395 8.56512C7.04273 9.58634 6.53251 10.8257 6.53328 12.2833C6.53328 13.7416 7.0439 14.9814 8.06512 16.0026C9.08634 17.0238 10.3257 17.5341 11.7833 17.5333Z" fill="white"/>
</svg>
